<?xml version="1.0" encoding="UTF-8" standalone="no" ?>
<!DOCTYPE svg PUBLIC "-//W3C//DTD SVG 1.1//EN" "http://www.w3.org/Graphics/SVG/1.1/DTD/svg11.dtd">
<svg xmlns="http://www.w3.org/2000/svg" version="1.1" width="16" height="16" viewBox="0 0 16 16" xml:space="preserve">
<desc>Created with Fabric.js 4.6.0</desc>
<defs>
</defs>
<g transform="matrix(1.28 0 0 1.28 8 8)" id="LdjqPwDOJDGSu-JFWO2lI"  >
<g style="" vector-effect="non-scaling-stroke"   >
		<g transform="matrix(0.78 0 0 0.75 -0.66 0)" id="l_0xiQB4evc4FxoKrTR9q"  >
<path style="stroke: none; stroke-width: 1; stroke-dasharray: none; stroke-linecap: butt; stroke-dashoffset: 0; stroke-linejoin: miter; stroke-miterlimit: 4; fill: rgb(154,167,176); fill-opacity: 0.8; fill-rule: evenodd; opacity: 1;" vector-effect="non-scaling-stroke"  transform=" translate(-8, -8)" d="M 7 15.0002 L 7 7 C 7 7 9 7 13 7 L 13 1.0002 L 8 1.0002 L 8 5.0002 L 8 6.0002 L 7 6.0002 L 3 6.0002 L 3 15.0002 L 7 15.0002 Z" stroke-linecap="round" />
</g>
		<g transform="matrix(0.78 0 0 0.75 -3 -3.75)" id="LBqBWEfP8Rz6W4eYNpJXx"  >
<path style="stroke: none; stroke-width: 1; stroke-dasharray: none; stroke-linecap: butt; stroke-dashoffset: 0; stroke-linejoin: miter; stroke-miterlimit: 4; fill: rgb(154,167,176); fill-opacity: 0.8; fill-rule: nonzero; opacity: 1;" vector-effect="non-scaling-stroke"  transform=" translate(-5, -3)" d="M 7 1 L 3 5 L 7 5 z" stroke-linecap="round" />
</g>
		<g transform="matrix(0.4 0 0 0.4 2.06 2.75)" id="ac-LpraPR6s_9PR_pkD47"  >
<g style="" vector-effect="non-scaling-stroke"   >
		<g transform="matrix(1 0 0 1 0 0)" id="waFA01ad5wT12IjxpxtHf"  >
<path style="stroke: none; stroke-width: 1; stroke-dasharray: none; stroke-linecap: butt; stroke-dashoffset: 0; stroke-linejoin: miter; stroke-miterlimit: 4; fill: rgb(64,182,224); fill-opacity: 0.6; fill-rule: nonzero; opacity: 1;" vector-effect="non-scaling-stroke"  transform=" translate(-7, -7)" d="M 0 14 L 0 0 L 14 0 L 14 14 z" stroke-linecap="round" />
</g>
		<g transform="matrix(1 0 0 1 0.5 0)" id="qhIiJRODGzJXUiZiQ_vPa"  >
<path style="stroke: none; stroke-width: 1; stroke-dasharray: none; stroke-linecap: butt; stroke-dashoffset: 0; stroke-linejoin: miter; stroke-miterlimit: 4; fill: rgb(35,31,32); fill-opacity: 0.7; fill-rule: evenodd; opacity: 1;" vector-effect="non-scaling-stroke"  transform=" translate(-8.5, -8)" d="M 7 7.99997 L 7 5.99997 L 8.537 5.99997 C 9.303 5.99997 10 6.31257 10 6.95357 C 10 7.59457 9.285 7.99997 8.547 7.99997 L 7 7.99997 Z M 9.36 8.82757 C 10.175 8.58957 11 8.10944 11 6.91257 C 11 5.71571 9.94885 4.99957 8.622 4.99957 L 6 4.99957 L 6 10.9996 L 7 10.9996 L 7 8.99997 L 7.5 8.99997 L 8.328 8.99997 L 9.773 10.9996 L 11 10.9996 L 9.36 8.82757 Z" stroke-linecap="round" />
</g>
</g>
</g>
</g>
</g>
</svg>