<svg xmlns="http://www.w3.org/2000/svg" width="16" zoomAndPan="magnify" viewBox="0 0 810 809.999993" height="16"
     preserveAspectRatio="xMidYMid meet" version="1.0"><defs><clipPath id="9d803dd145"><path d="M 493.25 496.566406 L 638.75 496.566406 L 638.75 642.066406 L 493.25 642.066406 Z M 493.25 496.566406 " clip-rule="nonzero"/></clipPath><clipPath id="883d9d0502"><path d="M 183.601562 162 L 615.167969 162 L 615.167969 593.566406 L 183.601562 593.566406 Z M 183.601562 162 " clip-rule="nonzero"/></clipPath><clipPath id="be3692da94"><path d="M 549.363281 506 L 795 506 L 795 796 L 549.363281 796 Z M 549.363281 506 " clip-rule="nonzero"/></clipPath><clipPath id="a0551d0f6a"><path d="M 549.363281 505.195312 L 796 505.195312 L 796 797 L 549.363281 797 Z M 549.363281 505.195312 " clip-rule="nonzero"/></clipPath></defs><path fill="#98ccfd" d="M 566 640.152344 C 526.941406 640.152344 495.164062 608.375 495.164062 569.316406 C 495.164062 530.257812 526.941406 498.480469 566 498.480469 C 605.058594 498.480469 636.835938 530.257812 636.835938 569.316406 C 636.835938 608.375 605.058594 640.152344 566 640.152344 Z M 566 640.152344 " fill-opacity="1" fill-rule="nonzero"/><g clip-path="url(#9d803dd145)"><path fill="#0084ff" d="M 566 500.394531 C 604 500.394531 634.921875 531.3125 634.921875 569.316406 C 634.921875 607.320312 604 638.238281 566 638.238281 C 527.996094 638.238281 497.078125 607.320312 497.078125 569.316406 C 497.078125 531.3125 527.996094 500.394531 566 500.394531 M 566 496.566406 C 525.824219 496.566406 493.25 529.140625 493.25 569.316406 C 493.25 609.492188 525.824219 642.066406 566 642.066406 C 606.175781 642.066406 638.75 609.492188 638.75 569.316406 C 638.75 529.140625 606.175781 496.566406 566 496.566406 Z M 566 496.566406 " fill-opacity="1" fill-rule="nonzero"/></g><path fill="#ffffff" d="M 604.289062 561.660156 L 573.65625 561.660156 L 573.65625 531.027344 L 558.339844 531.027344 L 558.339844 561.660156 L 527.710938 561.660156 L 527.710938 576.972656 L 558.339844 576.972656 L 558.339844 607.605469 L 573.65625 607.605469 L 573.65625 576.972656 L 604.289062 576.972656 Z M 604.289062 561.660156 " fill-opacity="1" fill-rule="nonzero"/><path fill="#0084ff" d="M 392.039062 48.851562 C 330.886719 47.054688 256.238281 54.234375 193.285156 100.929688 C 131.226562 147.621094 79.960938 232.03125 55.679688 320.035156 C 32.296875 408.027344 35 497.828125 70.96875 566.070312 C 106.945312 634.3125 176.191406 681.015625 264.328125 713.339844 C 353.371094 746.566406 462.1875 766.320312 552.125 732.199219 C 642.960938 697.171875 715.804688 609.179688 749.082031 513.09375 C 782.359375 417.015625 776.957031 314.644531 737.394531 240.113281 C 697.824219 165.585938 624.070312 120.691406 562.917969 91.953125 C 501.761719 63.214844 453.195312 50.640625 392.039062 48.851562 Z M 392.039062 48.851562 " fill-opacity="1" fill-rule="evenodd"/><g clip-path="url(#883d9d0502)"><path fill="#f0f8ff" d="M 272.726562 345.859375 C 272.726562 312.113281 300.164062 284.679688 333.867188 284.679688 C 367.613281 284.679688 395.046875 312.113281 395.046875 345.859375 C 395.046875 358.15625 385.113281 368.089844 372.855469 368.089844 C 360.597656 368.089844 350.660156 358.15625 350.660156 345.859375 C 350.660156 336.632812 343.132812 329.144531 333.867188 329.144531 C 324.644531 329.144531 317.113281 336.632812 317.113281 345.859375 C 317.113281 358.15625 307.183594 368.089844 294.925781 368.089844 C 282.664062 368.089844 272.726562 358.15625 272.726562 345.859375 M 526.035156 448.660156 C 526.035156 460.964844 516.101562 470.894531 503.84375 470.894531 L 297.921875 470.894531 C 285.660156 470.894531 275.722656 460.96875 275.722656 448.660156 C 275.722656 436.367188 285.660156 426.429688 297.921875 426.429688 L 503.84375 426.429688 C 516.101562 426.429688 526.035156 436.367188 526.035156 448.660156 M 429.8125 358.3125 C 422.953125 348.140625 425.636719 334.347656 435.808594 327.488281 L 487.289062 292.71875 C 497.378906 285.703125 511.253906 288.542969 518.117188 298.632812 C 524.976562 308.800781 522.292969 322.601562 512.121094 329.460938 L 460.640625 364.226562 C 450.855469 371.117188 436.640625 368.503906 429.8125 358.3125 Z M 570.78125 495.007812 C 570.777344 497.109375 570.375 499.128906 569.570312 501.066406 C 568.769531 503.007812 567.625 504.722656 566.140625 506.207031 L 527.878906 544.464844 C 526.394531 545.949219 524.679688 547.09375 522.738281 547.898438 C 520.796875 548.703125 518.777344 549.105469 516.675781 549.105469 L 282.089844 549.105469 C 279.992188 549.105469 277.96875 548.703125 276.027344 547.898438 C 274.089844 547.09375 272.375 545.949219 270.886719 544.464844 L 232.628906 506.207031 C 231.144531 504.722656 230 503.007812 229.195312 501.066406 C 228.390625 499.128906 227.988281 497.109375 227.988281 495.007812 L 227.988281 260.574219 C 227.988281 258.472656 228.390625 256.453125 229.191406 254.511719 C 229.996094 252.570312 231.140625 250.859375 232.628906 249.375 L 270.886719 211.105469 C 272.375 209.621094 274.089844 208.476562 276.027344 207.675781 C 277.96875 206.871094 279.992188 206.46875 282.089844 206.46875 L 516.675781 206.46875 C 518.777344 206.46875 520.796875 206.871094 522.738281 207.675781 C 524.679688 208.476562 526.394531 209.621094 527.878906 211.105469 L 566.140625 249.375 C 567.625 250.859375 568.769531 252.570312 569.574219 254.511719 C 570.378906 256.453125 570.78125 258.472656 570.78125 260.574219 Z M 603.34375 223.777344 L 553.390625 173.828125 C 551.515625 171.953125 549.476562 170.28125 547.273438 168.808594 C 545.070312 167.335938 542.746094 166.089844 540.296875 165.078125 C 537.847656 164.0625 535.324219 163.296875 532.726562 162.777344 C 530.128906 162.261719 527.503906 162 524.851562 162 L 273.882812 162 C 271.230469 162 268.605469 162.257812 266.003906 162.777344 C 263.402344 163.292969 260.878906 164.058594 258.429688 165.074219 C 255.980469 166.089844 253.652344 167.335938 251.449219 168.808594 C 249.246094 170.28125 247.207031 171.957031 245.332031 173.832031 L 195.414062 223.785156 C 193.542969 225.660156 191.871094 227.695312 190.398438 229.898438 C 188.925781 232.105469 187.683594 234.429688 186.671875 236.878906 C 185.65625 239.324219 184.890625 241.847656 184.375 244.449219 C 183.859375 247.046875 183.601562 249.671875 183.601562 252.320312 L 183.601562 503.253906 C 183.601562 513.957031 187.855469 524.234375 195.421875 531.792969 L 245.378906 581.746094 C 252.949219 589.316406 263.210938 593.566406 273.917969 593.566406 L 524.851562 593.566406 C 527.5 593.566406 530.125 593.308594 532.726562 592.792969 C 535.324219 592.273438 537.847656 591.507812 540.296875 590.496094 C 542.746094 589.480469 545.070312 588.238281 547.277344 586.765625 C 549.480469 585.292969 551.519531 583.621094 553.394531 581.746094 L 603.34375 531.792969 C 605.21875 529.921875 606.894531 527.882812 608.367188 525.679688 C 609.839844 523.476562 611.082031 521.148438 612.097656 518.699219 C 613.109375 516.25 613.875 513.726562 614.394531 511.128906 C 614.910156 508.527344 615.167969 505.902344 615.167969 503.253906 L 615.167969 252.324219 C 615.167969 249.671875 614.910156 247.046875 614.390625 244.449219 C 613.875 241.847656 613.109375 239.324219 612.09375 236.875 C 611.082031 234.425781 609.835938 232.097656 608.363281 229.894531 C 606.890625 227.691406 605.21875 225.652344 603.34375 223.777344 Z M 603.34375 223.777344 " fill-opacity="1" fill-rule="nonzero"/></g><g clip-path="url(#be3692da94)"><path fill="#0f9102" d="M 786.675781 666.890625 C 746.71875 691.019531 706.757812 715.148438 666.796875 739.277344 C 646.8125 751.34375 626.832031 763.40625 606.855469 775.472656 C 594.5625 782.894531 572.09375 804.207031 557.335938 792.191406 C 549.125 785.503906 551.070312 773.273438 551.070312 763.84375 C 551.070312 763.84375 551.070312 713.152344 551.070312 713.152344 C 551.070312 713.152344 551.070312 578.597656 551.070312 578.597656 C 551.070312 563.574219 541.730469 501.515625 571.125 506.863281 C 581.699219 508.785156 593.660156 519.355469 602.671875 524.878906 C 613.375 531.441406 624.082031 538.003906 634.785156 544.570312 C 657.621094 558.570312 680.453125 572.574219 703.285156 586.574219 C 725.410156 600.140625 747.527344 613.703125 769.648438 627.269531 C 777.585938 632.132812 789.527344 636.46875 793.453125 645.511719 C 796.804688 653.234375 793.929688 662.511719 786.675781 666.890625 Z M 786.675781 666.890625 " fill-opacity="1" fill-rule="nonzero"/></g><g clip-path="url(#a0551d0f6a)"><path fill="#000000" d="M 554.957031 788.3125 C 554.089844 788.691406 553.480469 788.234375 553.125 786.949219 C 553.371094 787.085938 551.648438 782.636719 551.644531 781.550781 C 553.285156 784.007812 552.164062 786.0625 554.957031 788.3125 Z M 721.347656 707.183594 C 720.445312 707.859375 720.445312 707.859375 721.347656 707.183594 Z M 731.855469 701.289062 C 732.734375 700.800781 732.734375 700.800781 731.855469 701.289062 Z M 658.835938 744.828125 C 658.890625 744.652344 657.910156 745.28125 657.058594 745.765625 C 657.058594 745.765625 658.835938 744.828125 658.835938 744.828125 Z M 566.464844 794.96875 C 563.753906 795.046875 566.378906 795.019531 566.464844 794.96875 Z M 628.921875 763.109375 C 627.925781 763.863281 627.949219 763.847656 628.921875 763.109375 Z M 607.863281 775.378906 C 605.800781 778.105469 607.890625 775.320312 607.863281 775.378906 Z M 572.078125 795.871094 C 571.867188 795.929688 571.558594 796.007812 571.375 796.058594 C 571.375 796.058594 572.078125 795.871094 572.078125 795.871094 Z M 552.558594 749.550781 C 552.484375 749.554688 552.484375 749.554688 552.558594 749.550781 Z M 550.988281 778.976562 C 550.917969 778.671875 550.75 777.964844 550.988281 778.976562 Z M 752.777344 689.160156 C 752.597656 689.253906 752.03125 689.683594 752.777344 689.160156 Z M 668.417969 563.652344 C 669.53125 564.527344 667.007812 563.273438 666.925781 563.300781 C 666.585938 563.421875 671.472656 565.789062 668.417969 563.652344 Z M 567.082031 795.054688 C 567.515625 795.082031 569.222656 795.078125 567.082031 795.054688 Z M 795.453125 657.171875 C 795.832031 656.453125 795.832031 656.453125 795.453125 657.171875 Z M 786.496094 636.5 C 787.117188 637.046875 789.226562 637.957031 786.496094 636.5 Z M 769.203125 625.929688 C 770.074219 626.695312 770.226562 626.644531 769.203125 625.929688 Z M 552.40625 683.457031 C 552.230469 684.410156 552.507812 684.605469 552.390625 685.359375 C 552.390625 685.359375 552.40625 683.457031 552.40625 683.457031 Z M 566.457031 795.148438 C 567.59375 794.527344 566.59375 795.179688 566.457031 795.148438 Z M 782.75 637.113281 C 783.570312 637.632812 784.628906 638.300781 785.667969 638.960938 C 785.667969 638.960938 782.75 637.113281 782.75 637.113281 Z M 773.992188 631.796875 C 773.46875 631.132812 772.824219 630.6875 772.0625 630.457031 C 772.707031 630.902344 773.351562 631.351562 773.992188 631.796875 Z M 795.800781 654.960938 C 795.441406 657.378906 790.78125 665.5625 792.988281 662.179688 C 788.746094 668.121094 781.53125 671.816406 775.414062 674.277344 C 776.46875 673.917969 776.308594 674.160156 774.933594 675.007812 C 776.332031 674.128906 777.722656 673.242188 779.109375 672.34375 C 778.058594 673.109375 777.035156 673.921875 775.984375 674.6875 C 777.664062 673.566406 779.386719 672.515625 781.0625 671.394531 C 777.882812 673.785156 769.722656 676.945312 765.199219 680.757812 C 765.484375 680.511719 765.773438 680.273438 766.0625 680.03125 C 764.878906 680.699219 763.761719 681.464844 762.714844 682.328125 C 763.222656 682.050781 763.726562 681.773438 764.234375 681.496094 C 763.191406 682.109375 758.074219 685.890625 759.859375 684.820312 C 756.835938 686.886719 753.550781 688.488281 751.292969 689.921875 C 752.160156 689.53125 752.332031 689.320312 751.792969 689.292969 C 751.925781 688.613281 752.46875 688.238281 753.421875 688.171875 C 750.921875 687.988281 748.496094 691.632812 746.515625 692.710938 C 747.117188 693.070312 751.890625 689.285156 745.078125 693.964844 C 745.589844 693.613281 746.097656 693.265625 746.605469 692.917969 C 744.105469 694.34375 741.527344 695.480469 739.160156 697.160156 C 739.625 696.867188 740.023438 696.507812 740.351562 696.082031 C 739.078125 695.511719 730.578125 701.867188 731.855469 701.289062 C 729.035156 702.871094 726.335938 704.660156 723.484375 706.1875 C 724.003906 705.832031 724.5625 705.5625 725.160156 705.378906 C 724.070312 706.9375 720.996094 707.3125 719.605469 708.4375 C 719.546875 708.484375 722.285156 706.449219 722.167969 706.453125 C 717.109375 706.90625 710.941406 714.675781 705.53125 716.84375 C 706.199219 716.511719 706.867188 716.175781 707.53125 715.839844 C 702.636719 717.847656 698.316406 722.039062 693.527344 724.476562 C 693.652344 724.296875 693.773438 724.113281 693.894531 723.933594 C 694.882812 722.503906 693.617188 723.226562 690.097656 726.105469 C 690.75 725.789062 691.402344 725.472656 692.058594 725.15625 C 689.09375 727.191406 685.769531 728.804688 682.574219 730.597656 C 686 728.574219 682.34375 730.835938 684.605469 729.207031 C 674.828125 734.429688 665.199219 740.273438 655.882812 746.386719 C 656.074219 746.152344 656.257812 746.125 656.433594 746.304688 C 651.617188 750.144531 645.828125 752.75 640.664062 755.703125 C 643.332031 753.449219 640.699219 755.632812 639.355469 756.335938 C 639.355469 756.335938 640.660156 755.234375 640.660156 755.234375 C 638.394531 756.339844 639.121094 755.988281 639.007812 756.902344 C 633.554688 759.824219 630.753906 761.804688 626.40625 764.632812 C 627.070312 764.347656 627.53125 763.890625 627.785156 763.265625 C 624.820312 765.195312 599.507812 778.804688 599.859375 780.257812 C 600.339844 779.914062 600.796875 779.539062 601.234375 779.128906 C 600.265625 779.578125 596.617188 782.546875 595.164062 782.738281 C 595.445312 782.421875 595.738281 782.347656 596.03125 782.519531 C 594.371094 782.214844 589.046875 786.679688 588.949219 786.589844 C 588.332031 785.996094 581.167969 791.503906 580.15625 792.152344 C 579.441406 792.652344 575.273438 795.140625 573.316406 795.648438 C 573.832031 795.65625 574.121094 795.460938 574.1875 795.0625 C 572.152344 795.820312 570.527344 796.292969 568.160156 796.1875 C 571.464844 795.832031 562.699219 796.753906 566.667969 795.5625 C 564.039062 795.382812 559.695312 794.808594 558.066406 792.355469 C 558.507812 792.617188 558.953125 792.878906 559.398438 793.140625 C 559.246094 791.925781 556.503906 790.992188 555.675781 790.019531 C 557.480469 791.371094 559.351562 792.964844 561.507812 793.710938 C 560.875 793.402344 560.210938 793.210938 559.519531 793.136719 C 560.3125 793.542969 568.160156 795.15625 563.636719 794.980469 C 567.035156 795.953125 570.605469 795.675781 573.957031 794.574219 C 573.476562 794.785156 573.015625 795.019531 572.570312 795.292969 C 578.824219 790.460938 587.257812 787.320312 593.769531 782.460938 C 593.332031 782.589844 592.910156 782.753906 592.5 782.953125 C 594.246094 782.695312 604.984375 775.8125 601.242188 778.757812 C 603.855469 776.6875 607.242188 775.363281 609.585938 772.953125 C 609.277344 773.101562 608.960938 773.253906 608.652344 773.402344 C 609.832031 772.761719 610.992188 772.015625 612.207031 771.441406 C 612.859375 771.074219 620.125 766.738281 613.070312 771.484375 C 615.074219 770.347656 616.996094 769.082031 618.832031 767.691406 C 618.300781 768.019531 617.855469 768.441406 617.5 768.949219 C 620.082031 767.464844 621.511719 766.109375 623.8125 764.707031 C 624.527344 764.265625 628.800781 761.945312 626.539062 763.523438 C 627.660156 762.859375 628.722656 762.109375 629.726562 761.277344 C 629.125 761.621094 628.484375 761.863281 627.8125 762.011719 C 629.457031 760.9375 631.105469 759.808594 632.808594 758.828125 C 632.636719 759.25 632.28125 759.515625 631.75 759.628906 C 640.617188 755.464844 648.476562 749.417969 656.757812 744.496094 C 659.648438 742.777344 674.742188 736.734375 676.332031 732.886719 C 676.011719 733.058594 675.695312 733.234375 675.378906 733.410156 C 680.660156 730.339844 685.65625 726.816406 690.839844 723.589844 C 690.503906 723.695312 689.488281 725.074219 689.164062 725.144531 C 692.941406 723.035156 696.484375 720.546875 700.246094 718.40625 C 699.992188 718.585938 699.746094 718.777344 699.507812 718.976562 C 704.515625 716.292969 710.050781 713.484375 714.96875 709.628906 C 717.480469 708.65625 719.265625 707.078125 721.320312 705.609375 C 720.464844 706.0625 719.609375 706.519531 718.753906 706.972656 C 720.191406 706.046875 721.640625 705.136719 723.105469 704.25 C 722.554688 704.648438 722.003906 705.050781 721.449219 705.449219 C 723.601562 704.160156 725.71875 702.816406 727.804688 701.425781 C 727.410156 701.585938 727.015625 701.742188 726.621094 701.898438 C 732.296875 698.257812 737.75 695.335938 744.011719 691.503906 C 743.667969 691.570312 743.480469 691.742188 743.449219 692.019531 C 745.4375 690.910156 747.316406 689.640625 749.089844 688.214844 C 746.898438 690.871094 753.082031 685.722656 753.433594 685.5 C 751.769531 686.898438 754.96875 684.574219 755.003906 684.554688 C 754.535156 685.046875 759.988281 682.582031 761.476562 681.089844 C 761.769531 680.796875 760.25 681.585938 760.390625 681.519531 C 762.457031 682.726562 760.917969 677.933594 761.472656 680.84375 C 766.488281 677.476562 771.796875 674.574219 776.863281 671.28125 C 776.335938 671.675781 775.8125 672.074219 775.296875 672.484375 C 779.132812 668.808594 784.945312 666.878906 788.976562 663.128906 C 789.300781 663.242188 783.710938 667.433594 783.742188 667.5625 C 795.691406 661 796.234375 646.84375 786.023438 639 C 778.371094 633.121094 768.855469 627.519531 760.132812 623.316406 C 760.398438 623.496094 760.675781 623.625 760.976562 623.707031 C 757.683594 620.3125 752.203125 619.046875 748.539062 616.046875 C 748.96875 616.3125 749.425781 616.515625 749.910156 616.65625 C 741.5 611.957031 733.527344 606.507812 725.085938 601.859375 C 725.628906 602.050781 726.175781 602.238281 726.722656 602.429688 C 720.601562 597.96875 713.109375 594.574219 706.667969 590.441406 C 702.570312 587.816406 686.714844 579.203125 686.472656 578.1875 C 681.992188 575.160156 676.171875 571.882812 670.742188 568.457031 C 667.171875 566.207031 663.789062 563.757812 660.144531 561.597656 C 659.925781 561.46875 649.949219 556.117188 653.390625 557.308594 C 643.757812 553.964844 634.480469 544.878906 625.921875 540.078125 C 625.984375 540.480469 626.257812 540.753906 626.738281 540.890625 C 611.386719 532.203125 592.703125 519.9375 578.445312 511.679688 C 581.757812 513.316406 577.59375 510.65625 577.644531 510.769531 C 578.136719 511.855469 574.335938 509 577.078125 510.933594 C 568.796875 505.738281 556.675781 508.335938 553.671875 517.839844 C 553.933594 517.15625 554.167969 516.457031 554.371094 515.753906 C 552.265625 519.539062 551.898438 525.519531 552.140625 529.792969 C 552.359375 529.296875 552.445312 528.777344 552.398438 528.222656 C 550.699219 547.339844 552.980469 569.539062 552.324219 587.386719 C 552.292969 587.082031 552.261719 586.773438 552.230469 586.464844 C 550.628906 607.886719 554.742188 628.816406 552.289062 650.957031 C 552.351562 650.125 552.25 648.847656 552.097656 648.066406 C 551.9375 650.644531 552.449219 652.875 552.425781 655.4375 C 552.285156 655.039062 552.136719 654.644531 551.992188 654.246094 C 551.628906 659.242188 550.117188 677.4375 552.351562 681.050781 C 552.179688 680.773438 552.5 678.53125 552.03125 680.660156 C 552.113281 679.542969 551.539062 676.195312 552.015625 677.953125 C 551.96875 677.78125 551.648438 674.835938 551.707031 674.765625 C 551.570312 677.695312 551.925781 680.683594 552.050781 683.609375 C 551.882812 682.886719 551.816406 682.160156 551.84375 681.425781 C 551.851562 681.53125 551.519531 685.195312 551.554688 681.640625 C 549.386719 686.050781 552.886719 700.710938 552.867188 707.226562 C 552.835938 706.667969 552.769531 706.105469 552.671875 705.554688 C 552.859375 706.226562 552.28125 720.152344 552.75 719.980469 C 552.328125 719.558594 552.132812 719.039062 552.160156 718.40625 C 552.8125 719.882812 552.484375 729.179688 552.230469 727.894531 C 553.195312 740.40625 551.296875 748.613281 552.429688 760.839844 C 552.34375 759.734375 551.960938 765.0625 552.011719 764.964844 C 552.449219 767.796875 552.753906 770.96875 552.351562 773.800781 C 552.34375 772.816406 552.339844 771.832031 552.335938 770.851562 C 552.21875 774.140625 551.832031 777.523438 552.046875 780.800781 C 551.597656 779.183594 551.160156 778.261719 550.878906 776.519531 C 550.640625 777.292969 550.546875 778.085938 550.589844 778.898438 C 551.847656 770.042969 550.199219 757.988281 550.203125 751.175781 C 550.207031 745.042969 550.324219 739.003906 550.265625 733 C 550.207031 726.644531 550.484375 720.277344 550.445312 713.917969 C 550.417969 710.238281 550.355469 706.558594 550.378906 702.878906 C 550.382812 702.144531 550.578125 694.238281 550.335938 697.53125 C 551.054688 689.050781 549.886719 677.855469 550.25 671.382812 C 550.359375 671.472656 550.417969 671.589844 550.433594 671.75 C 551.371094 670.613281 550.175781 663.433594 550.09375 662.003906 C 551.101562 666.898438 549.75 652.253906 549.835938 649.9375 C 550.027344 644.78125 550.792969 640.160156 550.105469 635 C 550.101562 634.628906 550.015625 641.503906 550 641.496094 C 549.40625 641.300781 549.503906 622.429688 549.414062 621.417969 C 549.839844 624.039062 549.765625 620.789062 550.152344 620.789062 C 550.316406 622.910156 550.105469 625.304688 550.105469 627.394531 C 550.519531 623.742188 550.070312 620.078125 550.234375 616.382812 C 550.167969 616.675781 550.238281 616.910156 550.441406 617.082031 C 550.660156 612.519531 550.125 607.914062 550.164062 603.320312 C 550.234375 603.738281 550.296875 604.160156 550.367188 604.578125 C 550.457031 602.699219 550.125 600.890625 550.234375 599.015625 C 550.253906 598.730469 549.902344 591.164062 549.796875 588.238281 C 549.722656 586.265625 549.582031 584.78125 549.550781 582.910156 C 549.511719 580.890625 548.597656 575.34375 549.847656 576.957031 C 549.214844 568.933594 549.3125 560.347656 549.363281 552.433594 C 549.441406 552.820312 549.515625 553.203125 549.59375 553.585938 C 549.46875 544.449219 545.226562 510.308594 558.28125 508.316406 C 558.003906 508.351562 564.3125 505.472656 566.035156 505.265625 C 573.753906 504.335938 579.566406 509.421875 585.691406 513.1875 C 597.378906 520.375 608.90625 526.515625 620.371094 534.097656 C 619.941406 533.910156 619.511719 533.71875 619.082031 533.53125 C 626.644531 538.816406 633.988281 542.222656 643.09375 547.964844 C 644.039062 548.496094 651.140625 552.816406 654.148438 554.472656 C 653.625 554.238281 653.105469 554 652.582031 553.765625 C 655.574219 555.332031 658.007812 557.617188 661 559.183594 C 660.183594 558.558594 659.367188 557.929688 658.550781 557.304688 C 660.675781 558.742188 662.777344 560.109375 664.957031 561.488281 C 664.4375 561.300781 663.941406 561.066406 663.472656 560.777344 C 665.167969 561.5625 672.40625 566.3125 671.84375 565.734375 C 679.328125 570.257812 686.984375 574.792969 694.078125 579.890625 C 695.578125 580.96875 697.519531 582.570312 698.949219 583.5 C 699.828125 584.070312 710.414062 589.566406 704.664062 586.496094 C 706.785156 587.207031 709.015625 588.867188 710.898438 590.023438 C 708.492188 588.808594 706.117188 587.355469 703.601562 586.367188 C 712.515625 591.527344 723.269531 595.066406 729.933594 601.902344 C 729.046875 601.371094 728.164062 600.832031 727.28125 600.296875 C 727.6875 601.949219 734.585938 604.523438 731.785156 603.644531 C 736.457031 606.324219 755.617188 614.09375 756.296875 618.269531 C 755.808594 618.261719 755.382812 618.046875 755.019531 617.621094 C 763.125 621.429688 770.574219 627.164062 779.316406 632.503906 C 783.316406 634.945312 789.976562 637.5 793.035156 642.371094 C 790.503906 639.242188 792.628906 642.175781 791.152344 640.824219 C 794.675781 645.078125 796.421875 649.398438 795.800781 654.960938 Z M 549.875 637.9375 C 549.667969 637.332031 549.640625 636.695312 549.796875 636.03125 C 549.550781 636.710938 549.578125 637.34375 549.875 637.9375 Z M 551.914062 630.328125 C 551.921875 630.855469 551.929688 631.382812 551.9375 631.914062 C 552.457031 630.855469 552.449219 630.324219 551.914062 630.328125 Z M 551.679688 625.996094 C 552.113281 627.566406 552.1875 626.855469 551.910156 623.863281 C 551.910156 624.585938 551.832031 625.296875 551.679688 625.996094 Z M 556.683594 791.222656 C 556.289062 790.78125 556.289062 790.78125 556.683594 791.222656 Z M 751.292969 689.921875 C 750.59375 690.371094 750.59375 690.371094 751.292969 689.921875 Z M 550.132812 639.371094 C 550.203125 640.953125 550.105469 637.488281 550.132812 639.371094 Z M 656.367188 746.128906 C 655.796875 746.40625 656.25 746.179688 656.367188 746.128906 Z M 552.515625 534.628906 C 552.511719 534.6875 552.40625 536.027344 552.515625 534.628906 Z M 625.242188 763.648438 C 624.652344 763.878906 624.652344 763.878906 625.242188 763.648438 Z M 610.136719 772.554688 C 610.96875 772.105469 611.570312 771.785156 612.054688 771.527344 C 612.054688 771.527344 610.136719 772.554688 610.136719 772.554688 Z M 601.863281 777.496094 C 601.816406 777.554688 601.589844 778.03125 601.863281 777.496094 Z M 762.441406 680.101562 C 762.769531 679.886719 764.132812 678.921875 762.441406 680.101562 Z M 714.980469 709.625 C 715.464844 709.273438 715.953125 708.921875 716.441406 708.566406 C 715.953125 708.921875 715.464844 709.273438 714.980469 709.625 Z M 785.984375 639.164062 C 785.871094 639.089844 785.269531 638.695312 785.984375 639.164062 Z M 716.441406 708.566406 C 717.183594 708.121094 717.925781 707.675781 718.667969 707.226562 C 717.925781 707.675781 717.183594 708.121094 716.441406 708.566406 Z M 557.128906 790.664062 C 557.128906 790.664062 558.023438 791.539062 557.128906 790.664062 Z M 557.042969 790.65625 C 556.449219 790.125 556.449219 790.125 557.042969 790.65625 Z M 555.6875 789.382812 C 556.421875 790.089844 557.480469 790.421875 555.6875 789.382812 Z M 575.484375 793.300781 C 573.773438 793.191406 572.414062 793.65625 571.410156 794.699219 C 572.785156 794.046875 574.15625 794.375 575.484375 793.300781 Z M 593.1875 784.359375 C 592.03125 785.015625 590.882812 785.679688 589.730469 786.34375 C 590.832031 785.875 590.832031 786 589.722656 786.71875 C 593.398438 784.84375 589.503906 786.535156 593.1875 784.359375 Z M 603.847656 778.128906 C 601.332031 779.742188 606.867188 776.570312 603.847656 778.128906 Z M 680.226562 732.015625 C 680.816406 732.367188 680.285156 731.835938 680.226562 732.015625 Z M 692.074219 723.214844 C 692.734375 722.785156 693.394531 722.347656 694.058594 721.917969 C 693.09375 722.1875 692.804688 722.671875 692.074219 723.214844 Z M 703.148438 718.878906 C 703.914062 718.375 704.683594 717.867188 705.449219 717.367188 C 704.675781 717.855469 703.914062 718.371094 703.148438 718.878906 Z M 772.644531 627.710938 C 773.339844 628.386719 774.699219 628.8125 772.644531 627.710938 Z M 714.257812 592.199219 C 715.273438 592.867188 716.289062 593.535156 717.308594 594.203125 C 716.390625 593.382812 715.375 592.714844 714.257812 592.199219 Z M 551.3125 515.746094 C 551.3125 515.746094 550.445312 518.269531 550.445312 518.269531 C 550.753906 517.484375 550.957031 516.480469 551.3125 515.746094 Z M 551.3125 515.746094 " fill-opacity="1" fill-rule="nonzero"/></g></svg>