<svg xmlns="http://www.w3.org/2000/svg" width="1080" zoomAndPan="magnify" viewBox="0 0 810 809.999993" height="1080"
     preserveAspectRatio="xMidYMid meet" version="1.0"><defs><clipPath id="731b4e4f7e"><path d="M 183.601562 162 L 615.167969 162 L 615.167969 593.566406 L 183.601562 593.566406 Z M 183.601562 162 " clip-rule="nonzero"/></clipPath><clipPath id="3b1d8b5e56"><path d="M 493.25 496.566406 L 686.75 496.566406 L 686.75 690.066406 L 493.25 690.066406 Z M 493.25 496.566406 " clip-rule="nonzero"/></clipPath></defs><path fill="#0084ff" d="M 392.039062 48.851562 C 330.886719 47.054688 256.238281 54.234375 193.285156 100.929688 C 131.226562 147.621094 79.960938 232.03125 55.679688 320.035156 C 32.296875 408.027344 35 497.828125 70.96875 566.070312 C 106.945312 634.3125 176.191406 681.015625 264.328125 713.339844 C 353.371094 746.566406 462.1875 766.320312 552.125 732.199219 C 642.960938 697.171875 715.804688 609.179688 749.082031 513.09375 C 782.359375 417.015625 776.957031 314.644531 737.394531 240.113281 C 697.824219 165.585938 624.070312 120.691406 562.917969 91.953125 C 501.761719 63.214844 453.195312 50.640625 392.039062 48.851562 Z M 392.039062 48.851562 " fill-opacity="1" fill-rule="evenodd"/><g clip-path="url(#731b4e4f7e)"><path fill="#f0f8ff" d="M 272.726562 345.859375 C 272.726562 312.113281 300.164062 284.679688 333.867188 284.679688 C 367.613281 284.679688 395.046875 312.113281 395.046875 345.859375 C 395.046875 358.15625 385.113281 368.089844 372.855469 368.089844 C 360.597656 368.089844 350.660156 358.15625 350.660156 345.859375 C 350.660156 336.632812 343.132812 329.144531 333.867188 329.144531 C 324.644531 329.144531 317.113281 336.632812 317.113281 345.859375 C 317.113281 358.15625 307.183594 368.089844 294.925781 368.089844 C 282.664062 368.089844 272.726562 358.15625 272.726562 345.859375 M 526.035156 448.660156 C 526.035156 460.964844 516.101562 470.894531 503.84375 470.894531 L 297.921875 470.894531 C 285.660156 470.894531 275.722656 460.96875 275.722656 448.660156 C 275.722656 436.367188 285.660156 426.429688 297.921875 426.429688 L 503.84375 426.429688 C 516.101562 426.429688 526.035156 436.367188 526.035156 448.660156 M 429.8125 358.3125 C 422.953125 348.140625 425.636719 334.347656 435.808594 327.488281 L 487.289062 292.71875 C 497.378906 285.703125 511.253906 288.542969 518.117188 298.632812 C 524.976562 308.800781 522.292969 322.601562 512.121094 329.460938 L 460.640625 364.226562 C 450.855469 371.117188 436.640625 368.503906 429.8125 358.3125 Z M 570.78125 495.007812 C 570.777344 497.109375 570.375 499.128906 569.570312 501.066406 C 568.769531 503.007812 567.625 504.722656 566.140625 506.207031 L 527.878906 544.464844 C 526.394531 545.949219 524.679688 547.09375 522.738281 547.898438 C 520.796875 548.703125 518.777344 549.105469 516.675781 549.105469 L 282.089844 549.105469 C 279.992188 549.105469 277.96875 548.703125 276.027344 547.898438 C 274.089844 547.09375 272.375 545.949219 270.886719 544.464844 L 232.628906 506.207031 C 231.144531 504.722656 230 503.007812 229.195312 501.066406 C 228.390625 499.128906 227.988281 497.109375 227.988281 495.007812 L 227.988281 260.574219 C 227.988281 258.472656 228.390625 256.453125 229.191406 254.511719 C 229.996094 252.570312 231.140625 250.859375 232.628906 249.375 L 270.886719 211.105469 C 272.375 209.621094 274.089844 208.476562 276.027344 207.675781 C 277.96875 206.871094 279.992188 206.46875 282.089844 206.46875 L 516.675781 206.46875 C 518.777344 206.46875 520.796875 206.871094 522.738281 207.675781 C 524.679688 208.476562 526.394531 209.621094 527.878906 211.105469 L 566.140625 249.375 C 567.625 250.859375 568.769531 252.570312 569.574219 254.511719 C 570.378906 256.453125 570.78125 258.472656 570.78125 260.574219 Z M 603.34375 223.777344 L 553.390625 173.828125 C 551.515625 171.953125 549.476562 170.28125 547.273438 168.808594 C 545.070312 167.335938 542.746094 166.089844 540.296875 165.078125 C 537.847656 164.0625 535.324219 163.296875 532.726562 162.777344 C 530.128906 162.261719 527.503906 162 524.851562 162 L 273.882812 162 C 271.230469 162 268.605469 162.257812 266.003906 162.777344 C 263.402344 163.292969 260.878906 164.058594 258.429688 165.074219 C 255.980469 166.089844 253.652344 167.335938 251.449219 168.808594 C 249.246094 170.28125 247.207031 171.957031 245.332031 173.832031 L 195.414062 223.785156 C 193.542969 225.660156 191.871094 227.695312 190.398438 229.898438 C 188.925781 232.105469 187.683594 234.429688 186.671875 236.878906 C 185.65625 239.324219 184.890625 241.847656 184.375 244.449219 C 183.859375 247.046875 183.601562 249.671875 183.601562 252.320312 L 183.601562 503.253906 C 183.601562 513.957031 187.855469 524.234375 195.421875 531.792969 L 245.378906 581.746094 C 252.949219 589.316406 263.210938 593.566406 273.917969 593.566406 L 524.851562 593.566406 C 527.5 593.566406 530.125 593.308594 532.726562 592.792969 C 535.324219 592.273438 537.847656 591.507812 540.296875 590.496094 C 542.746094 589.480469 545.070312 588.238281 547.277344 586.765625 C 549.480469 585.292969 551.519531 583.621094 553.394531 581.746094 L 603.34375 531.792969 C 605.21875 529.921875 606.894531 527.882812 608.367188 525.679688 C 609.839844 523.476562 611.082031 521.148438 612.097656 518.699219 C 613.109375 516.25 613.875 513.726562 614.394531 511.128906 C 614.910156 508.527344 615.167969 505.902344 615.167969 503.253906 L 615.167969 252.324219 C 615.167969 249.671875 614.910156 247.046875 614.390625 244.449219 C 613.875 241.847656 613.109375 239.324219 612.09375 236.875 C 611.082031 234.425781 609.835938 232.097656 608.363281 229.894531 C 606.890625 227.691406 605.21875 225.652344 603.34375 223.777344 Z M 603.34375 223.777344 " fill-opacity="1" fill-rule="nonzero"/></g><path fill="#98ccfd" d="M 590 687.519531 C 538.054688 687.519531 495.796875 645.261719 495.796875 593.316406 C 495.796875 541.371094 538.054688 499.113281 590 499.113281 C 641.945312 499.113281 684.203125 541.371094 684.203125 593.316406 C 684.203125 645.261719 641.945312 687.519531 590 687.519531 Z M 590 687.519531 " fill-opacity="1" fill-rule="nonzero"/><g clip-path="url(#3b1d8b5e56)"><path fill="#0084ff" d="M 590 501.660156 C 640.539062 501.660156 681.65625 542.777344 681.65625 593.316406 C 681.65625 643.855469 640.539062 684.972656 590 684.972656 C 539.460938 684.972656 498.339844 643.855469 498.339844 593.316406 C 498.339844 542.777344 539.460938 501.660156 590 501.660156 M 590 496.566406 C 536.566406 496.566406 493.25 539.882812 493.25 593.316406 C 493.25 646.746094 536.566406 690.066406 590 690.066406 C 643.429688 690.066406 686.75 646.746094 686.75 593.316406 C 686.75 539.882812 643.429688 496.566406 590 496.566406 Z M 590 496.566406 " fill-opacity="1" fill-rule="nonzero"/></g><path fill="#ffffff" d="M 640.921875 583.132812 L 600.183594 583.132812 L 600.183594 542.394531 L 579.816406 542.394531 L 579.816406 583.132812 L 539.078125 583.132812 L 539.078125 603.5 L 579.816406 603.5 L 579.816406 644.238281 L 600.183594 644.238281 L 600.183594 603.5 L 640.921875 603.5 Z M 640.921875 583.132812 " fill-opacity="1" fill-rule="nonzero"/></svg>